<svg width="513" height="208" viewBox="0 0 513 208" fill="none" xmlns="http://www.w3.org/2000/svg">
<path d="M491.876 0H21.1235C9.45733 0 0 10.8646 0 24.2667V183.733C0 197.135 9.45733 208 21.1235 208H491.876C503.543 208 513 197.135 513 183.733V24.2667C513 10.8646 503.543 0 491.876 0Z" fill="transparent"/>
<g filter="url(#filter0_d_0_1)">
<path d="M155 18H43C27.536 18 15 30.536 15 46V158C15 173.464 27.536 186 43 186H155C170.464 186 183 173.464 183 158V46C183 30.536 170.464 18 155 18Z" stroke="#648D72" stroke-width="2.5" shape-rendering="crispEdges"/>
</g>
<path d="M64 128H52C49.2386 128 47 130.239 47 133V155C47 157.761 49.2386 160 52 160H64C66.7614 160 69 157.761 69 155V133C69 130.239 66.7614 128 64 128Z" fill="#2D6B52"/>
<path d="M95 104H83C80.2386 104 78 106.239 78 109V155C78 157.761 80.2386 160 83 160H95C97.7614 160 100 157.761 100 155V109C100 106.239 97.7614 104 95 104Z" fill="#3A8A68"/>
<path d="M126 78H114C111.239 78 109 80.2386 109 83V155C109 157.761 111.239 160 114 160H126C128.761 160 131 157.761 131 155V83C131 80.2386 128.761 78 126 78Z" fill="#1D9E75"/>
<path d="M157 52H145C142.239 52 140 54.2386 140 57V155C140 157.761 142.239 160 145 160H157C159.761 160 162 157.761 162 155V57C162 54.2386 159.761 52 157 52Z" fill="#1D9E75"/>
<path d="M137 48L145 58L159 36" stroke="#1D9E75" stroke-width="3.5" stroke-linecap="round" stroke-linejoin="round"/>
<path d="M41 164H171" stroke="#2D6B52" stroke-width="2" stroke-linecap="round"/>
<path d="M223.904 119.596C222.464 119.596 220.52 118.12 218.072 115.168C215.624 112.144 214.4 109.948 214.4 108.58C214.4 107.212 216.164 97.204 219.692 78.556C223.292 59.836 225.164 48.352 225.308 44.104C225.452 41.728 226.568 40.54 228.656 40.54C230.384 40.54 232.688 42.268 235.568 45.724C238.448 49.18 239.888 52.42 239.888 55.444C239.888 56.74 238.88 61.636 236.864 70.132C234.92 78.556 233.588 84.46 232.868 87.844C232.22 91.156 231.644 94.144 231.14 96.808C230.636 99.4 230.24 101.452 229.952 102.964C227.936 112.18 226.352 117.472 225.2 118.84C224.768 119.344 224.336 119.596 223.904 119.596ZM284.772 63.976C288.516 63.976 291.792 65.668 294.6 69.052C297.48 72.364 298.92 75.928 298.92 79.744C298.92 85.864 297.912 92.272 295.896 98.968C293.952 105.592 291.792 110.704 289.416 114.304C287.112 117.904 284.736 119.704 282.288 119.704C279.912 119.704 278.724 118.012 278.724 114.628C278.724 112.036 279.912 106.816 282.288 98.968C284.088 92.488 284.988 87.844 284.988 85.036C284.988 82.228 284.628 80.824 283.908 80.824C282.972 80.824 282.036 81.292 281.1 82.228C280.236 83.164 279.516 83.992 278.94 84.712C278.364 85.432 277.68 86.368 276.888 87.52C276.168 88.6 275.52 89.608 274.944 90.544C274.44 91.408 273.756 92.56 272.892 94C272.1 95.368 271.452 96.52 270.948 97.456C270.444 98.32 269.796 99.472 269.004 100.912C262.308 113.44 257.052 119.704 253.236 119.704C251.724 119.704 249.816 118.408 247.512 115.816C245.208 113.152 244.056 111.208 244.056 109.984C244.056 109.192 244.56 107.5 245.568 104.908C246.648 102.244 247.404 100.228 247.836 98.86C248.34 97.42 248.736 95.908 249.024 94.324C249.384 92.74 249.672 91.048 249.888 89.248C250.104 87.376 250.248 85.936 250.32 84.928C250.464 83.92 250.608 82.336 250.752 80.176C251.4 70.816 251.94 65.632 252.372 64.624C252.876 63.616 253.416 63.112 253.992 63.112C256.728 63.112 259.356 64.264 261.876 66.568C264.396 68.8 265.656 70.852 265.656 72.724C265.656 77.188 264.504 83.596 262.2 91.948C266.88 83.74 271.128 77.044 274.944 71.86C278.832 66.604 282.108 63.976 284.772 63.976ZM342.629 63.976C344.501 63.976 346.301 64.66 348.029 66.028C349.829 67.324 350.729 68.692 350.729 70.132C350.729 72.724 348.569 78.736 344.249 88.168C340.001 97.6 336.041 105.196 332.369 110.956C328.769 116.716 325.961 119.596 323.945 119.596C322.865 119.596 321.281 118.876 319.193 117.436C317.177 115.996 315.881 114.556 315.305 113.116C313.577 108.94 311.489 101.236 309.041 90.004C306.593 78.7 305.369 71.536 305.369 68.512C305.369 65.488 306.377 63.976 308.393 63.976C310.841 63.976 313.361 64.948 315.953 66.892C320.273 70.204 322.685 74.632 323.189 80.176C323.405 82.768 323.585 85.972 323.729 89.788C323.873 93.532 324.197 96.772 324.701 99.508C326.429 96.196 328.553 91.3 331.073 84.82C333.593 78.268 335.753 73.156 337.553 69.484C339.425 65.812 341.117 63.976 342.629 63.976ZM365.619 108.688C369.507 106.96 372.891 103.468 375.771 98.212C378.651 92.956 380.091 88.024 380.091 83.416C380.091 78.808 379.443 75.64 378.147 73.912C375.051 75.712 371.955 79.492 368.859 85.252C365.835 91.012 364.323 96.088 364.323 100.48C364.323 104.8 364.755 107.536 365.619 108.688ZM349.851 101.56C349.851 92.56 352.623 84.028 358.167 75.964C363.783 67.9 369.327 63.868 374.799 63.868C380.271 63.868 384.879 65.812 388.623 69.7C392.367 73.516 394.239 78.16 394.239 83.632C394.239 89.032 392.943 94.54 390.351 100.156C387.759 105.772 384.123 110.452 379.443 114.196C374.763 117.868 369.759 119.704 364.431 119.704C360.471 119.704 357.051 117.94 354.171 114.412C351.291 110.884 349.851 106.6 349.851 101.56Z" fill="#34D399"/>
<path d="M440.577 115.708C440.577 118.372 439.389 119.704 437.013 119.704C433.125 119.704 428.013 114.952 421.677 105.448C413.469 114.952 407.961 119.704 405.153 119.704C403.209 119.704 401.337 118.768 399.537 116.896C397.809 114.952 396.945 113.26 396.945 111.82C396.945 111.46 397.701 110.56 399.213 109.12C405.189 103.432 410.193 98.068 414.225 93.028C411.129 87.412 408.501 82.048 406.341 76.936C404.181 71.824 403.101 68.728 403.101 67.648C403.101 66.496 403.137 65.74 403.209 65.38C403.425 64.444 404.073 63.976 405.153 63.976C408.177 63.976 411.345 64.588 414.657 65.812C418.041 66.964 419.733 68.332 419.733 69.916C419.733 72.436 420.813 76.108 422.973 80.932C427.365 74.74 430.929 70.348 433.665 67.756C436.473 65.164 438.741 63.868 440.469 63.868C442.269 63.868 444.249 64.912 446.409 67C448.641 69.088 449.757 70.96 449.757 72.616C449.757 73.408 449.433 74.164 448.785 74.884C448.137 75.604 447.165 76.468 445.869 77.476C444.573 78.412 443.313 79.492 442.089 80.716C440.937 81.94 437.013 86.656 430.317 94.864L433.449 100.372C438.201 108.724 440.577 113.836 440.577 115.708ZM496.698 89.032C497.994 90.184 498.642 91.228 498.642 92.164C498.642 93.1 498.21 95.044 497.346 97.996C496.482 100.948 495.906 103.252 495.618 104.908C495.33 106.492 495.078 107.752 494.862 108.688C494.718 109.624 494.61 110.38 494.538 110.956C494.466 111.46 494.322 112.108 494.106 112.9C493.962 113.692 493.818 114.34 493.674 114.844C493.602 115.276 493.458 115.816 493.242 116.464C493.098 117.04 492.918 117.508 492.702 117.868C492.486 118.156 492.234 118.48 491.946 118.84C491.514 119.416 490.794 119.704 489.786 119.704C488.778 119.704 487.518 118.696 486.006 116.68C484.566 114.664 483.486 112.216 482.766 109.336C475.998 116.248 470.31 119.704 465.702 119.704C462.606 119.704 459.258 118.012 455.658 114.628C452.058 111.172 450.258 107.752 450.258 104.368C450.258 100.912 451.806 96.016 454.902 89.68C457.998 83.344 462.21 77.476 467.538 72.076C472.938 66.676 478.266 63.976 483.522 63.976C486.546 63.976 490.038 65.74 493.998 69.268C497.958 72.796 499.938 76.036 499.938 78.988C499.938 81.868 498.858 85.216 496.698 89.032ZM465.27 106.096C468.15 106.096 471.966 104.152 476.718 100.264C481.542 96.304 484.53 91.336 485.682 85.36C485.754 84.496 486.366 83.992 487.518 83.848C487.302 79.744 486.618 77.692 485.466 77.692C482.586 77.692 479.346 79.564 475.746 83.308C472.218 87.052 469.302 91.048 466.998 95.296C464.766 99.544 463.65 102.676 463.65 104.692C463.65 105.268 463.722 105.664 463.866 105.88C464.082 106.024 464.55 106.096 465.27 106.096Z" fill="#34D399"/>
<path d="M440.577 115.708C440.577 118.372 439.389 119.704 437.013 119.704C433.125 119.704 428.013 114.952 421.677 105.448C413.469 114.952 407.961 119.704 405.153 119.704C403.209 119.704 401.337 118.768 399.537 116.896C397.809 114.952 396.945 113.26 396.945 111.82C396.945 111.46 397.701 110.56 399.213 109.12C405.189 103.432 410.193 98.068 414.225 93.028C411.129 87.412 408.501 82.048 406.341 76.936C404.181 71.824 403.101 68.728 403.101 67.648C403.101 66.496 403.137 65.74 403.209 65.38C403.425 64.444 404.073 63.976 405.153 63.976C408.177 63.976 411.345 64.588 414.657 65.812C418.041 66.964 419.733 68.332 419.733 69.916C419.733 72.436 420.813 76.108 422.973 80.932C427.365 74.74 430.929 70.348 433.665 67.756C436.473 65.164 438.741 63.868 440.469 63.868C442.269 63.868 444.249 64.912 446.409 67C448.641 69.088 449.757 70.96 449.757 72.616C449.757 73.408 449.433 74.164 448.785 74.884C448.137 75.604 447.165 76.468 445.869 77.476C444.573 78.412 443.313 79.492 442.089 80.716C440.937 81.94 437.013 86.656 430.317 94.864L433.449 100.372C438.201 108.724 440.577 113.836 440.577 115.708ZM496.698 89.032C497.994 90.184 498.642 91.228 498.642 92.164C498.642 93.1 498.21 95.044 497.346 97.996C496.482 100.948 495.906 103.252 495.618 104.908C495.33 106.492 495.078 107.752 494.862 108.688C494.718 109.624 494.61 110.38 494.538 110.956C494.466 111.46 494.322 112.108 494.106 112.9C493.962 113.692 493.818 114.34 493.674 114.844C493.602 115.276 493.458 115.816 493.242 116.464C493.098 117.04 492.918 117.508 492.702 117.868C492.486 118.156 492.234 118.48 491.946 118.84C491.514 119.416 490.794 119.704 489.786 119.704C488.778 119.704 487.518 118.696 486.006 116.68C484.566 114.664 483.486 112.216 482.766 109.336C475.998 116.248 470.31 119.704 465.702 119.704C462.606 119.704 459.258 118.012 455.658 114.628C452.058 111.172 450.258 107.752 450.258 104.368C450.258 100.912 451.806 96.016 454.902 89.68C457.998 83.344 462.21 77.476 467.538 72.076C472.938 66.676 478.266 63.976 483.522 63.976C486.546 63.976 490.038 65.74 493.998 69.268C497.958 72.796 499.938 76.036 499.938 78.988C499.938 81.868 498.858 85.216 496.698 89.032ZM465.27 106.096C468.15 106.096 471.966 104.152 476.718 100.264C481.542 96.304 484.53 91.336 485.682 85.36C485.754 84.496 486.366 83.992 487.518 83.848C487.302 79.744 486.618 77.692 485.466 77.692C482.586 77.692 479.346 79.564 475.746 83.308C472.218 87.052 469.302 91.048 466.998 95.296C464.766 99.544 463.65 102.676 463.65 104.692C463.65 105.268 463.722 105.664 463.866 105.88C464.082 106.024 464.55 106.096 465.27 106.096Z" fill="#BF2E2E" fill-opacity="0.2"/>
<path d="M216.255 150.091V161H213.948V150.091H216.255ZM227.277 150.091V161H225.285L220.539 154.134H220.459V161H218.152V150.091H220.176L224.885 156.952H224.981V150.091H227.277ZM231.153 150.091L233.79 158.379H233.891L236.533 150.091H239.09L235.33 161H232.357L228.591 150.091H231.153ZM249.813 155.545C249.813 156.735 249.587 157.747 249.136 158.582C248.689 159.416 248.078 160.054 247.304 160.494C246.533 160.931 245.667 161.149 244.705 161.149C243.735 161.149 242.865 160.929 242.094 160.489C241.324 160.048 240.715 159.411 240.267 158.576C239.82 157.742 239.596 156.732 239.596 155.545C239.596 154.356 239.82 153.344 240.267 152.509C240.715 151.675 241.324 151.039 242.094 150.602C242.865 150.162 243.735 149.942 244.705 149.942C245.667 149.942 246.533 150.162 247.304 150.602C248.078 151.039 248.689 151.675 249.136 152.509C249.587 153.344 249.813 154.356 249.813 155.545ZM247.474 155.545C247.474 154.775 247.359 154.125 247.128 153.596C246.901 153.067 246.58 152.665 246.164 152.392C245.749 152.119 245.262 151.982 244.705 151.982C244.147 151.982 243.661 152.119 243.245 152.392C242.83 152.665 242.506 153.067 242.276 153.596C242.048 154.125 241.935 154.775 241.935 155.545C241.935 156.316 242.048 156.966 242.276 157.495C242.506 158.024 242.83 158.425 243.245 158.699C243.661 158.972 244.147 159.109 244.705 159.109C245.262 159.109 245.749 158.972 246.164 158.699C246.58 158.425 246.901 158.024 247.128 157.495C247.359 156.966 247.474 156.316 247.474 155.545ZM253.828 150.091V161H251.521V150.091H253.828ZM265.351 153.91H263.018C262.975 153.608 262.888 153.34 262.757 153.106C262.625 152.868 262.457 152.665 262.251 152.499C262.045 152.332 261.807 152.204 261.537 152.115C261.271 152.026 260.981 151.982 260.669 151.982C260.104 151.982 259.612 152.122 259.193 152.403C258.774 152.68 258.449 153.085 258.218 153.617C257.988 154.146 257.872 154.789 257.872 155.545C257.872 156.323 257.988 156.977 258.218 157.506C258.453 158.035 258.779 158.434 259.199 158.704C259.618 158.974 260.102 159.109 260.653 159.109C260.962 159.109 261.248 159.068 261.51 158.987C261.777 158.905 262.013 158.786 262.219 158.63C262.425 158.47 262.595 158.276 262.73 158.049C262.869 157.822 262.964 157.562 263.018 157.271L265.351 157.282C265.29 157.783 265.14 158.266 264.898 158.731C264.66 159.192 264.339 159.606 263.934 159.972C263.533 160.334 263.053 160.622 262.496 160.835C261.942 161.044 261.315 161.149 260.615 161.149C259.642 161.149 258.772 160.929 258.005 160.489C257.242 160.048 256.638 159.411 256.194 158.576C255.754 157.742 255.534 156.732 255.534 155.545C255.534 154.356 255.757 153.344 256.205 152.509C256.652 151.675 257.26 151.039 258.027 150.602C258.794 150.162 259.657 149.942 260.615 149.942C261.248 149.942 261.833 150.031 262.373 150.208C262.917 150.386 263.398 150.645 263.817 150.986C264.236 151.323 264.577 151.737 264.839 152.227C265.106 152.717 265.276 153.278 265.351 153.91ZM267.005 161V150.091H274.356V151.993H269.311V154.592H273.977V156.494H269.311V159.098H274.377V161H267.005ZM279.661 150.091H282.506L285.51 157.42H285.638L288.642 150.091H291.486V161H289.249V153.9H289.159L286.335 160.947H284.812L281.989 153.873H281.898V161H279.661V150.091ZM295.267 161H292.795L296.561 150.091H299.534L303.294 161H300.823L298.09 152.584H298.005L295.267 161ZM295.112 156.712H300.951V158.512H295.112V156.712ZM313.732 150.091V161H311.74L306.994 154.134H306.914V161H304.607V150.091H306.631L311.34 156.952H311.436V150.091H313.732ZM317.518 161H315.046L318.812 150.091H321.785L325.545 161H323.074L320.341 152.584H320.256L317.518 161ZM317.363 156.712H323.202V158.512H317.363V156.712ZM333.579 153.617C333.505 153.358 333.4 153.129 333.265 152.93C333.13 152.728 332.965 152.557 332.77 152.419C332.578 152.277 332.358 152.168 332.109 152.094C331.864 152.019 331.592 151.982 331.294 151.982C330.737 151.982 330.247 152.12 329.824 152.397C329.405 152.674 329.078 153.077 328.844 153.607C328.609 154.132 328.492 154.775 328.492 155.535C328.492 156.295 328.608 156.941 328.839 157.474C329.069 158.006 329.396 158.413 329.819 158.694C330.241 158.971 330.74 159.109 331.315 159.109C331.837 159.109 332.283 159.017 332.652 158.832C333.025 158.644 333.309 158.379 333.505 158.038C333.704 157.697 333.803 157.294 333.803 156.829L334.272 156.898H331.459V155.162H336.024V156.536C336.024 157.495 335.822 158.319 335.417 159.008C335.012 159.693 334.455 160.222 333.744 160.595C333.034 160.964 332.221 161.149 331.305 161.149C330.282 161.149 329.384 160.924 328.609 160.473C327.835 160.018 327.232 159.374 326.798 158.539C326.369 157.701 326.154 156.707 326.154 155.556C326.154 154.672 326.282 153.884 326.537 153.191C326.797 152.495 327.159 151.906 327.624 151.423C328.089 150.94 328.631 150.572 329.249 150.32C329.867 150.068 330.536 149.942 331.257 149.942C331.875 149.942 332.45 150.032 332.983 150.213C333.515 150.391 333.988 150.643 334.4 150.97C334.815 151.297 335.154 151.685 335.417 152.136C335.68 152.584 335.848 153.077 335.923 153.617H333.579ZM337.757 161V150.091H345.108V151.993H340.063V154.592H344.729V156.494H340.063V159.098H345.129V161H337.757ZM346.941 150.091H349.786L352.79 157.42H352.918L355.922 150.091H358.767V161H356.529V153.9H356.439L353.616 160.947H352.092L349.269 153.873H349.179V161H346.941V150.091ZM360.667 161V150.091H368.018V151.993H362.973V154.592H367.64V156.494H362.973V159.098H368.039V161H360.667ZM378.976 150.091V161H376.984L372.238 154.134H372.158V161H369.851V150.091H371.876L376.584 156.952H376.68V150.091H378.976ZM380.466 151.993V150.091H389.426V151.993H386.086V161H383.806V151.993H380.466Z" fill="#1D9E75"/>
<path d="M213.134 186L214.825 175.818H217.256L216.624 179.671H216.674C216.807 179.439 216.982 179.215 217.201 179C217.423 178.785 217.69 178.609 218.001 178.473C218.313 178.334 218.669 178.264 219.07 178.264C219.601 178.264 220.073 178.403 220.487 178.682C220.902 178.96 221.203 179.389 221.392 179.969C221.581 180.549 221.601 181.289 221.452 182.187C221.309 183.052 221.052 183.776 220.681 184.359C220.31 184.943 219.867 185.38 219.354 185.672C218.843 185.964 218.306 186.109 217.743 186.109C217.358 186.109 217.035 186.046 216.773 185.92C216.515 185.795 216.308 185.629 216.152 185.423C216 185.218 215.893 184.997 215.834 184.762H215.739L215.54 186H213.134ZM216.152 182.182C216.086 182.593 216.082 182.951 216.142 183.256C216.205 183.561 216.326 183.798 216.505 183.967C216.687 184.132 216.928 184.215 217.226 184.215C217.524 184.215 217.791 184.132 218.026 183.967C218.262 183.798 218.459 183.561 218.618 183.256C218.777 182.951 218.89 182.593 218.956 182.182C219.022 181.771 219.026 181.415 218.966 181.113C218.91 180.811 218.792 180.578 218.613 180.412C218.434 180.246 218.194 180.163 217.892 180.163C217.594 180.163 217.325 180.245 217.087 180.407C216.851 180.569 216.652 180.801 216.49 181.103C216.331 181.405 216.218 181.764 216.152 182.182ZM222.862 188.864C222.571 188.864 222.299 188.84 222.047 188.794C221.798 188.751 221.586 188.693 221.411 188.62L222.246 186.855C222.468 186.935 222.672 186.979 222.857 186.989C223.046 187.003 223.215 186.971 223.365 186.895C223.517 186.822 223.65 186.691 223.762 186.502L223.901 186.268L222.504 178.364H224.96L225.458 183.817H225.537L227.874 178.364H230.524L226.263 186.731C226.048 187.148 225.787 187.518 225.482 187.839C225.177 188.161 224.81 188.411 224.379 188.59C223.951 188.772 223.446 188.864 222.862 188.864Z" fill="#2D6B52"/>
<path d="M237.009 186H233.191L234.881 175.818H238.585C239.619 175.818 240.481 176.029 241.17 176.45C241.863 176.867 242.352 177.467 242.637 178.249C242.925 179.028 242.98 179.956 242.801 181.033C242.629 182.074 242.282 182.966 241.762 183.708C241.245 184.451 240.582 185.019 239.773 185.413C238.965 185.804 238.043 186 237.009 186ZM235.995 183.902H237.163C237.733 183.902 238.237 183.799 238.675 183.594C239.115 183.385 239.48 183.052 239.768 182.594C240.057 182.134 240.262 181.529 240.385 180.78C240.504 180.064 240.499 179.499 240.37 179.085C240.244 178.667 239.999 178.369 239.634 178.19C239.273 178.007 238.8 177.916 238.217 177.916H236.994L235.995 183.902ZM251.238 179.144C251.218 178.935 251.171 178.751 251.099 178.592C251.026 178.43 250.926 178.292 250.8 178.18C250.674 178.067 250.519 177.982 250.333 177.926C250.147 177.866 249.932 177.837 249.687 177.837C249.196 177.837 248.742 177.956 248.324 178.195C247.907 178.433 247.554 178.781 247.265 179.239C246.977 179.693 246.78 180.245 246.674 180.894C246.568 181.547 246.564 182.104 246.664 182.565C246.767 183.025 246.972 183.377 247.28 183.619C247.589 183.861 247.996 183.982 248.503 183.982C248.957 183.982 249.358 183.909 249.706 183.763C250.055 183.614 250.336 183.403 250.552 183.131C250.77 182.86 250.908 182.54 250.964 182.172L251.417 182.227H248.941L249.239 180.432H253.624L253.4 181.779C253.251 182.691 252.93 183.471 252.436 184.121C251.945 184.77 251.332 185.269 250.596 185.617C249.864 185.965 249.06 186.139 248.185 186.139C247.217 186.139 246.4 185.929 245.734 185.508C245.068 185.087 244.594 184.487 244.312 183.708C244.031 182.926 243.978 181.998 244.153 180.924C244.292 180.089 244.539 179.348 244.894 178.702C245.252 178.052 245.689 177.502 246.206 177.051C246.727 176.6 247.302 176.259 247.932 176.027C248.561 175.795 249.216 175.679 249.895 175.679C250.482 175.679 251.016 175.763 251.496 175.933C251.977 176.102 252.388 176.34 252.729 176.648C253.071 176.957 253.327 177.323 253.5 177.747C253.675 178.171 253.752 178.637 253.729 179.144H251.238ZM264.58 181.068C264.395 182.165 264.03 183.092 263.487 183.847C262.946 184.6 262.288 185.17 261.513 185.558C260.741 185.945 259.91 186.139 259.022 186.139C258.084 186.139 257.272 185.93 256.586 185.513C255.9 185.095 255.401 184.487 255.089 183.688C254.781 182.889 254.722 181.92 254.911 180.78C255.089 179.683 255.449 178.755 255.989 177.996C256.533 177.237 257.194 176.662 257.973 176.271C258.755 175.876 259.594 175.679 260.489 175.679C261.42 175.679 262.227 175.889 262.91 176.31C263.596 176.731 264.093 177.343 264.401 178.145C264.71 178.947 264.769 179.921 264.58 181.068ZM262.119 180.78C262.222 180.14 262.222 179.602 262.119 179.164C262.02 178.727 261.824 178.397 261.533 178.175C261.241 177.949 260.862 177.837 260.394 177.837C259.877 177.837 259.41 177.964 258.992 178.219C258.578 178.471 258.232 178.839 257.953 179.323C257.675 179.804 257.481 180.385 257.371 181.068C257.259 181.714 257.255 182.253 257.362 182.684C257.471 183.115 257.675 183.44 257.973 183.658C258.271 183.874 258.651 183.982 259.112 183.982C259.625 183.982 260.088 183.857 260.499 183.609C260.91 183.36 261.253 182.997 261.528 182.52C261.806 182.043 262.003 181.463 262.119 180.78ZM275.553 175.818L273.862 186H271.774L268.707 180.124H268.637L267.658 186H265.197L266.887 175.818H269.005L272.048 181.685H272.132L273.097 175.818H275.553ZM279.561 175.818L277.871 186H275.41L277.1 175.818H279.561ZM283.502 175.818L284.825 179.035H284.904L287.32 175.818H290.169L286.261 180.909L288.578 186H285.819L284.447 182.749H284.367L281.921 186H279.053L283.065 180.909L280.822 175.818H283.502Z" fill="white"/>
<defs>
<filter id="filter0_d_0_1" x="9.75" y="16.75" width="178.5" height="178.5" filterUnits="userSpaceOnUse" color-interpolation-filters="sRGB">
<feFlood flood-opacity="0" result="BackgroundImageFix"/>
<feColorMatrix in="SourceAlpha" type="matrix" values="0 0 0 0 0 0 0 0 0 0 0 0 0 0 0 0 0 0 127 0" result="hardAlpha"/>
<feOffset dy="4"/>
<feGaussianBlur stdDeviation="2"/>
<feComposite in2="hardAlpha" operator="out"/>
<feColorMatrix type="matrix" values="0 0 0 0 0 0 0 0 0 0 0 0 0 0 0 0 0 0 0.25 0"/>
<feBlend mode="normal" in2="BackgroundImageFix" result="effect1_dropShadow_0_1"/>
<feBlend mode="normal" in="SourceGraphic" in2="effect1_dropShadow_0_1" result="shape"/>
</filter>
</defs>
</svg>
